<?xml version="1.0" encoding="UTF-8" standalone="no"?>
<svg xmlns="http://www.w3.org/2000/svg" version="1.0" width="45.000000pt" height="45.000000pt" viewBox="0 0 45.000000 45.000000" preserveAspectRatio="xMidYMid meet">
  <metadata>
Created by potrace 1.16, written by Peter Selinger 2001-2019
</metadata>
  <g transform="translate(0.000000,45.000000) scale(0.100000,-0.100000)" fill="#000000" stroke="none">
    <path d="M0 378 l1 -73 18 35 c22 40 53 71 96 93 30 16 30 16 -42 17 l-73 0 0 -72z"></path>
    <path d="M335 433 c44 -23 84 -63 78 -79 -2 -7 -29 -27 -59 -44 -30 -16 -54 -33 -54 -36 0 -14 92 5 110 21 19 17 20 17 20 -3 0 -11 5 -24 10 -27 6 -4 10 28 10 89 l0 96 -72 0 c-73 -1 -73 -1 -43 -17z"></path>
    <path d="M190 406 c0 -21 -18 -30 -35 -16 -26 21 -35 6 -18 -29 20 -40 60 -62 74 -40 13 20 7 92 -8 97 -7 2 -13 -3 -13 -12z"></path>
    <path d="M284 385 c-20 -27 -29 -33 -35 -23 -6 9 -9 4 -9 -15 0 -42 28 -46 62 -9 28 32 36 66 19 77 -5 3 -22 -11 -37 -30z"></path>
    <path d="M30 325 c0 -22 38 -47 79 -52 36 -5 41 -3 41 13 0 15 -13 23 -60 35 -44 12 -60 13 -60 4z"></path>
    <path d="M281 242 c-16 -30 -65 -46 -101 -34 -26 10 -30 9 -30 -7 0 -28 42 -61 79 -61 42 0 81 38 81 79 0 36 -15 48 -29 23z"></path>
    <path d="M440 230 c0 -6 -27 -10 -60 -10 -33 0 -60 -4 -60 -8 0 -5 20 -19 45 -32 47 -24 57 -48 30 -70 -12 -10 -22 -8 -56 15 l-42 27 7 -55 c6 -46 4 -55 -10 -61 -20 -8 -41 8 -50 37 -4 12 -13 27 -20 35 -12 11 -15 11 -20 -5 -22 -68 -44 -87 -71 -60 -14 14 -13 20 8 61 12 25 20 49 16 52 -3 3 -24 -8 -45 -26 -46 -36 -82 -35 -82 4 0 12 -6 28 -12 35 -11 10 -10 11 3 6 22 -8 94 11 109 30 11 13 3 15 -59 15 l-71 0 0 -110 0 -110 225 0 225 0 0 120 c0 66 -2 120 -5 120 -3 0 -5 -4 -5 -10z"></path>
  </g>
</svg>
