<svg xmlns="http://www.w3.org/2000/svg" xmlns:xlink="http://www.w3.org/1999/xlink" fill="#000000" height="800px" width="800px" id="Capa_1" viewBox="0 0 511 511" xml:space="preserve"><g>	<path d="M415.5,0h-320C82.542,0,72,10.542,72,23.5v304C72,428.682,154.318,511,255.5,511S439,428.682,439,327.5v-304  C439,10.542,428.458,0,415.5,0z M424,327.5c0,92.911-75.589,168.5-168.5,168.5S87,420.411,87,327.5v-304c0-4.687,3.813-8.5,8.5-8.5  h320c4.687,0,8.5,3.813,8.5,8.5V327.5z"></path>	<path d="M375.5,104h-56.723c0.847-6.229-0.453-12.736-4.064-18.41l-31.019-48.744c-0.294-0.462-0.637-0.89-1.024-1.277  c-15.4-15.4-40.46-15.402-55.861,0c-7.539,7.538-11.377,17.391-11.536,27.292c-0.035,0.407-0.035,0.822-0.001,1.241  c0.052,3.47,0.556,6.934,1.515,10.295l4.43,29.602H135.5c-12.958,0-23.5,10.542-23.5,23.5v196.398  c0,39.41,16.274,78.017,44.65,105.922c27.058,26.609,62.114,41.178,98.945,41.178c0.778,0,1.558-0.006,2.337-0.02  c37.763-0.631,73.203-15.852,99.79-42.858C384.34,401.083,399,365.349,399,327.5v-200C399,114.542,388.458,104,375.5,104z   M271.51,45.64l30.547,48.003c3.149,4.949,2.452,11.302-1.726,15.479c-4.147,4.148-10.5,4.846-15.45,1.696l-48.004-30.548  c-2.499-2.657-4.317-5.786-5.419-9.172l-1.209-8.079c0.122-6.364,2.65-12.33,7.164-16.844  C246.786,36.805,261.92,36.626,271.51,45.64z M273.857,121.582l-6.869,37.095c-1,5.402-5.714,9.323-11.208,9.323  c-5.598,0-10.444-4.175-11.272-9.711l-9.161-61.213L273.857,121.582z M384,327.5c0,33.886-13.128,65.883-36.967,90.098  c-23.812,24.187-55.544,37.818-89.352,38.383c-33.623,0.563-65.774-12.526-90.514-36.855C141.641,394.022,127,359.313,127,323.898  V127.5c0-4.687,3.813-8.5,8.5-8.5h87.961l6.212,41.509C231.592,173.331,242.815,183,255.78,183c12.724,0,23.64-9.081,25.957-21.591  l6.268-33.849c1.188,0.158,2.381,0.244,3.573,0.244c7.059,0,14.045-2.757,19.391-8.103c0.226-0.226,0.426-0.468,0.643-0.7H375.5  c4.687,0,8.5,3.813,8.5,8.5V327.5z"></path>	<path d="M254.74,71c1.97,0,3.9-0.8,5.3-2.2c1.4-1.39,2.2-3.32,2.2-5.3s-0.8-3.91-2.2-5.3c-1.4-1.4-3.33-2.2-5.3-2.2  c-1.98,0-3.91,0.8-5.3,2.2c-1.4,1.39-2.2,3.33-2.2,5.3c0,1.97,0.8,3.91,2.2,5.3C250.83,70.2,252.76,71,254.74,71z"></path>	<path d="M255.5,192c-12.958,0-23.5,10.542-23.5,23.5s10.542,23.5,23.5,23.5s23.5-10.542,23.5-23.5S268.458,192,255.5,192z   M255.5,224c-4.687,0-8.5-3.813-8.5-8.5s3.813-8.5,8.5-8.5s8.5,3.813,8.5,8.5S260.187,224,255.5,224z"></path></g></svg>