<svg xmlns="http://www.w3.org/2000/svg" xmlns:xlink="http://www.w3.org/1999/xlink" fill="#000000" height="800px" width="800px" id="Layer_1" viewBox="0 0 512 512" xml:space="preserve"><g>	<g>		<path d="M428,0H84C72.972,0,64,8.972,64,20v456c0,11.028,8.972,20,20,20h344c11.028,0,20-8.972,20-20V20   C448,8.972,439.028,0,428,0z M440,476c0,6.616-5.384,12-12,12H84c-6.616,0-12-5.384-12-12V20c0-6.616,5.384-12,12-12h344   c6.616,0,12,5.384,12,12V476z"></path>	</g></g><g>	<g>		<path d="M256,0c-2.212,0-4,1.792-4,4v488c0,2.208,1.788,4,4,4c2.212,0,4-1.792,4-4V4C260,1.792,258.212,0,256,0z"></path>	</g></g><g>	<g>		<path d="M428,488c-2.212,0-4,1.792-4,4v12H88v-12c0-2.208-1.788-4-4-4s-4,1.792-4,4v16c0,2.208,1.788,4,4,4h344   c2.212,0,4-1.792,4-4v-16C432,489.792,430.212,488,428,488z"></path>	</g></g><g>	<g>		<g>			<path d="M392,20h-16c-2.212,0-4,1.792-4,4s1.788,4,4,4h16c2.212,0,4-1.792,4-4S394.212,20,392,20z"></path>			<path d="M424,20h-16c-2.212,0-4,1.792-4,4s1.788,4,4,4h12v52c0,2.208,1.788,4,4,4c2.212,0,4-1.792,4-4V24    C428,21.792,426.212,20,424,20z"></path>		</g>	</g></g><g>	<g>		<path d="M444,400H276c-2.212,0-4,1.792-4,4s1.788,4,4,4h168c2.212,0,4-1.792,4-4S446.212,400,444,400z"></path>	</g></g><g>	<g>		<path d="M256,400H68c-2.212,0-4,1.792-4,4s1.788,4,4,4h188c2.212,0,4-1.792,4-4S258.212,400,256,400z"></path>	</g></g><g>	<g>		<path d="M188,420h-52c-2.212,0-4,1.792-4,4s1.788,4,4,4h52c2.212,0,4-1.792,4-4S190.212,420,188,420z"></path>	</g></g><g>	<g>		<path d="M376,420h-52c-2.212,0-4,1.792-4,4s1.788,4,4,4h52c2.212,0,4-1.792,4-4S378.212,420,376,420z"></path>	</g></g><g>	<g>		<path d="M444,312H68c-2.212,0-4,1.792-4,4s1.788,4,4,4h376c2.212,0,4-1.792,4-4S446.212,312,444,312z"></path>	</g></g><g>	<g>		<path d="M188,332h-52c-2.212,0-4,1.792-4,4s1.788,4,4,4h52c2.212,0,4-1.792,4-4S190.212,332,188,332z"></path>	</g></g><g>	<g>		<path d="M376,332h-52c-2.212,0-4,1.792-4,4s1.788,4,4,4h52c2.212,0,4-1.792,4-4S378.212,332,376,332z"></path>	</g></g><g>	<g>		<path d="M232,128c-2.212,0-4,1.792-4,4v56c0,2.208,1.788,4,4,4c2.212,0,4-1.792,4-4v-56C236,129.792,234.212,128,232,128z"></path>	</g></g><g>	<g>		<path d="M280,128c-2.212,0-4,1.792-4,4v56c0,2.208,1.788,4,4,4c2.212,0,4-1.792,4-4v-56C284,129.792,282.212,128,280,128z"></path>	</g></g></svg>