<svg xmlns="http://www.w3.org/2000/svg" xmlns:xlink="http://www.w3.org/1999/xlink" fill="#000000" height="800px" width="800px" id="Layer_1" viewBox="0 0 508 508" xml:space="preserve"><g>	<g>		<path d="M215.7,59.45h-13.8c-7.8,0-14.1,6.3-14.1,14.1s6.3,14.1,14.1,14.1h13.8c7.8,0,14.1-6.3,14.1-14.1S223.5,59.45,215.7,59.45   z"></path>	</g></g><g>	<g>		<path d="M306.1,59.45h-13.8c-7.8,0-14.1,6.3-14.1,14.1s6.3,14.1,14.1,14.1h13.8c7.8,0,14.1-6.3,14.1-14.1S313.9,59.45,306.1,59.45   z"></path>	</g></g><g>	<g>		<path d="M318,197.25c7.8,0,14.1-6.3,14.1-14.1v-35.9h161.8c7.8,0,14.1-6.3,14.1-14.1v-86c0-6.3-4.2-11.9-10.4-13.6   C416.8,11.35,334.9,0.05,254,0.05S91.2,11.35,10.4,33.55C4.2,35.25,0,40.85,0,47.15v446.7c0,7.8,6.3,14.1,14.1,14.1h479.8   c7.8,0,14.1-6.3,14.1-14.1v-69.8c0-7.8-6.3-14.1-14.1-14.1h-89.6c0.8-1.1,1.5-2.3,2.3-3.4c31.3-8.2,101.4-55,101.4-104.5   c0-24.9-22.8-52.8-58.8-43.1c0.1-2.5,0.2-4.9,0.2-7.4c0-7.8-6.3-14.1-14.1-14.1H200.7c-7.8,0-14.1,6.3-14.1,14.1   c0,61.7,16.8,119.2,45,158.4h-48.5c-14.1,0-26-11-27.1-25.1l-18.6-237.8h166.5v36C303.9,190.85,310.2,197.25,318,197.25z    M446.2,296.95c2-6.9,8.5-11.8,16.5-11.8c9.4,0,17,7.6,17,17c0,22.7-27.6,47.5-51.2,62.9C446,320.55,446,298.85,446.2,296.95z    M215.1,265.65h205.7c-2.7,60.4-22.5,114.2-53.4,144.3h-99C237.6,379.85,217.8,326.05,215.1,265.65z M183.1,438.25h296.7v41.6   H28.2v-332.7h80.9l18.8,240C130.1,415.75,154.4,438.25,183.1,438.25z M28.2,118.95v-60.9c75-19.7,150.9-29.7,225.8-29.7   s150.8,10,225.8,29.7v60.9H28.2z"></path>	</g></g></svg>