<svg xmlns="http://www.w3.org/2000/svg" xmlns:xlink="http://www.w3.org/1999/xlink" fill="#000000" width="800px" height="800px" viewBox="0 0 64 64" xml:space="preserve"><g id="_x31_-smartphone"></g><g id="_x32_-smartTV"><g><path d="M60.714,45V3H3.286v42h24.048v7.221C17.879,53.108,11,56.644,11,61h2c0-3.311,7.803-7,19-7s19,3.689,19,7h2    c0-4.356-6.879-7.892-16.333-8.779V45H60.714z M5.286,5h53.429v38H5.286V5z M34.667,51h-5.333v-6h5.333V51z"></path><path d="M11,18h7v-7h-7V18z M13,13h3v3h-3V13z"></path><path d="M28.5,18h7v-7h-7V18z M30.5,13h3v3h-3V13z"></path><path d="M46,18h7v-7h-7V18z M48,13h3v3h-3V13z"></path><path d="M11,33h7v-7h-7V33z M13,28h3v3h-3V28z"></path><path d="M28.5,33h7v-7h-7V33z M30.5,28h3v3h-3V28z"></path><path d="M46,33h7v-7h-7V33z M48,28h3v3h-3V28z"></path></g></g><g id="_x33_-telepon"></g><g id="_x34_-computer"></g><g id="_x35_-kalkulator"></g><g id="_x36_-radio"></g><g id="_x37_-hadset"></g><g id="_x38_-usbflashdisk"></g><g id="_x39_-camera"></g><g id="_x31_0-printer"></g><g id="_x31_1-powerbank"></g><g id="_x31_2-kulkas"></g><g id="_x31_3-modem"></g><g id="_x31_4-tablet"></g><g id="_x31_5-gamebot"></g><g id="_x31_6-wasing_machine"></g><g id="_x31_7-handdryer"></g><g id="_x31_8-blender"></g><g id="_x31_9-controller"></g><g id="_x32_0-michrophone"></g><g id="_x32_1-lamp"></g></svg>