<svg xmlns="http://www.w3.org/2000/svg" xmlns:xlink="http://www.w3.org/1999/xlink" fill="#000000" height="800px" width="800px" id="Layer_1" viewBox="0 0 512.765 512.765" xml:space="preserve"><g transform="translate(1 1)">	<g>		<path d="M501.2,304.876L282.747,152.983c-5.693-3.895-12.124-6.417-18.773-7.577v-27.159c29.155-4.075,51.2-28.753,51.2-59.131   c0-33.28-26.453-59.733-59.733-59.733c-33.28,0-59.733,26.453-59.733,59.733c0,5.12,3.413,8.533,8.533,8.533   c5.12,0,8.533-3.413,8.533-8.533c0-23.893,18.773-42.667,42.667-42.667c23.893,0,42.667,18.773,42.667,42.667   s-18.773,42.667-42.667,42.667c-5.12,0-8.533,3.413-8.533,8.533v35.09c-6.649,1.16-13.08,3.681-18.773,7.577L9.68,304.876   c-9.387,6.827-12.8,17.067-9.387,27.307c3.413,10.24,11.947,17.067,23.04,17.067h61.44v85.333v51.2   c0,14.507,11.093,25.6,25.6,25.6h238.933c14.507,0,25.6-11.093,25.6-25.6v-8.533h42.667c14.507,0,25.6-11.093,25.6-24.747V349.249   h44.373c10.24,0,19.627-6.827,23.04-17.067C514,321.943,509.734,310.849,501.2,304.876z M374.96,332.183   c0.557-9.976,5.953-18.535,13.582-22.785c3.232-1.646,6.894-2.63,10.832-2.788c6.449,0.227,13.433,2.033,18.199,6.8   c5.12,4.267,8.533,11.947,8.533,18.773H374.96z M357.84,332.183v1.707v92.16h-256v-85.333v-8.533c0-14.507,11.093-25.6,25.6-25.6   h238.933C361.254,313.409,357.84,322.796,357.84,332.183z M357.84,485.783c0,5.12-3.413,8.533-8.533,8.533H110.374   c-5.12,0-8.533-3.413-8.533-8.533v-42.667h256v25.6V485.783z M417.574,460.183h-42.667v-25.6v-85.333h51.2v102.4   C426.107,456.769,422.694,460.183,417.574,460.183z M494.374,327.063c-0.853,1.707-1.707,5.12-6.827,5.12h-44.373   c0-23.893-18.773-42.667-42.667-42.667H127.44c-23.893,0-42.667,18.773-42.667,42.667h-61.44c-5.12,0-6.827-4.267-6.827-5.12   c0-0.853-0.853-5.12,3.413-7.68l217.6-152.747c4.578-3.433,10.009-5.15,15.53-5.401c0.746,0.179,1.542,0.281,2.39,0.281   c0.689,0,1.344-0.067,1.967-0.186c5.372,0.496,10.641,2.333,15.1,5.306l219.307,152.747   C495.227,321.943,494.374,326.209,494.374,327.063z"></path>	</g></g></svg>