<svg xmlns="http://www.w3.org/2000/svg" xmlns:xlink="http://www.w3.org/1999/xlink" fill="#000000" height="800px" width="800px" id="Layer_1" viewBox="0 0 512 512" xml:space="preserve"><g>	<g>		<path d="M469.333,290.133l-25.327,0.008c-96.862-3.123-143.821-37.948-154.103-46.677c-1.653-14.081-11.919-25.566-25.37-29.042   v-18.156c0-4.719-3.814-8.533-8.533-8.533c-9.412,0-17.067-7.654-17.067-17.067c0-9.412,7.654-17.067,17.067-17.067   c9.412,0,17.067,7.654,17.067,17.067c0,4.719,3.814,8.533,8.533,8.533s8.533-3.814,8.533-8.533   c0-18.825-15.309-34.133-34.133-34.133s-34.133,15.309-34.133,34.133c0,15.872,10.888,29.261,25.6,33.05v10.706   c-13.464,3.479-23.732,14.979-25.378,29.077c-7.097,6.095-31.683,24.713-78.615,36.565c-0.35,0.066-0.693,0.151-1.027,0.259   c-20.418,5.078-45.01,8.868-74.18,9.811h-25.6C19.14,290.133,0,309.274,0,332.8c0,23.526,19.14,42.667,42.667,42.667h426.667   c23.526,0,42.667-19.14,42.667-42.667C512,309.274,492.86,290.133,469.333,290.133z M469.333,358.4H42.667   c-14.114,0-25.6-11.486-25.6-25.6s11.486-25.6,25.6-25.6l25.873-0.009c25.966-0.837,48.544-3.819,67.994-7.979v16.521   c0,4.71-3.823,8.533-8.533,8.533h-17.067c-4.719,0-8.533,3.814-8.533,8.533s3.814,8.533,8.533,8.533H128   c14.114,0,25.6-11.486,25.6-25.6v-20.671c56.664-15.486,81.48-40.179,82.901-41.631c1.553-1.596,2.432-3.729,2.432-5.965   c0-9.412,7.654-17.067,17.067-17.067c9.412,0,17.067,7.654,17.067,17.067c0,2.236,0.879,4.369,2.432,5.965   c1.42,1.451,26.209,26.117,82.901,41.607v20.695c0,14.114,11.486,25.6,25.6,25.6h17.067c4.719,0,8.533-3.814,8.533-8.533   s-3.814-8.533-8.533-8.533H384c-4.71,0-8.533-3.823-8.533-8.533v-16.545c19.516,4.176,42.182,7.171,68.267,8.012h25.6   c14.114,0,25.6,11.486,25.6,25.6S483.447,358.4,469.333,358.4z"></path>	</g></g></svg>