<svg xmlns="http://www.w3.org/2000/svg" xmlns:xlink="http://www.w3.org/1999/xlink" x="0px" y="0px" viewBox="0 0 66 82.5" xml:space="preserve"><g><path d="M62,15.6835947H44.6875V9.5664072c0-2.0673833-1.6826172-3.7500005-3.75-3.7500005h-15.875   c-2.0673828,0-3.75,1.6826172-3.75,3.7500005v6.1171875H4c-2.0673828,0-3.75,1.6826162-3.75,3.749999v37   c0,2.0673828,1.6826172,3.75,3.75,3.75h58c2.0673828,0,3.75-1.6826172,3.75-3.75v-37   C65.75,17.3662109,64.0673828,15.6835947,62,15.6835947z M22.8125,9.5664072c0-1.2402344,1.0097656-2.2500005,2.25-2.2500005   h15.875c1.2402344,0,2.25,1.0097661,2.25,2.2500005v6.1171875h-20.375V9.5664072z M64.25,56.4335938   c0,1.2402344-1.0097656,2.25-2.25,2.25H4c-1.2402344,0-2.25-1.0097656-2.25-2.25v-37c0-1.2402344,1.0097656-2.25,2.25-2.25   c14.4749699,0,52.292244,0,58,0c1.2402344,0,2.25,1.0097656,2.25,2.25V56.4335938z"></path><polygon points="60.25,54.6835938 5,54.6835938 5,56.1835938 61.75,56.1835938 61.75,20.4335938 60.25,20.4335938  "></polygon><path d="M28.9472656,48.8085938h8.1181641v-6.8222656H43.875v-8.1171875h-6.8095703v-6.8105469h-8.1181641v6.8105469H22.125   v8.1171875h6.8222656V48.8085938z M23.625,40.4863281v-5.1171875h6.8222656v-6.8105469h5.1181641v6.8105469H42.375v5.1171875   h-6.8095703v6.8222656h-5.1181641v-6.8222656H23.625z"></path></g><text x="0" y="81" fill="#000000" font-size="5px" font-weight="bold" font-family="'Helvetica Neue', Helvetica, Arial-Unicode, Arial, Sans-serif">Created by Vectors Point</text><text x="0" y="86" fill="#000000" font-size="5px" font-weight="bold" font-family="'Helvetica Neue', Helvetica, Arial-Unicode, Arial, Sans-serif">from the Noun Project</text></svg>