<svg xmlns="http://www.w3.org/2000/svg" xmlns:xlink="http://www.w3.org/1999/xlink" x="0px" y="0px" viewBox="0 0 64 80" style="enable-background:new 0 0 64 64;" xml:space="preserve"><g><path d="M51.5,9c-0.2,0-0.5,0-0.7,0.1c-1-1.3-2.6-2.1-4.3-2.1c-2.9,0-5.4,2.3-5.5,5.2c-1.1,0.3-2,0.9-2.8,1.8   c-0.2,0.2-0.3,0.5-0.2,0.7c0,0.3,0.1,0.5,0.4,0.7c0.4,0.4,1.1,0.3,1.4-0.1c0.6-0.7,1.4-1.2,2.4-1.3c0.3,0,0.5-0.2,0.7-0.4   c0.2-0.2,0.3-0.5,0.2-0.7l0-0.1c0-0.2,0-0.3,0-0.3c0-1.9,1.6-3.5,3.5-3.5c1.2,0,2.3,0.6,3,1.7c0.2,0.4,0.7,0.6,1.1,0.4   c0.3-0.1,0.6-0.1,0.9-0.1c1.9,0,3.5,1.6,3.5,3.5c0,0.9-0.3,1.7-1,2.4c-0.2,0.3-0.3,0.6-0.2,1c0.1,0.4,0.2,0.7,0.2,1   c0,1.9-1.6,3.5-3.5,3.5c-1.5,0-2.9-1.1-3.4-2.6c-0.1-0.4-0.4-0.7-0.8-0.7s-0.8,0.1-1,0.4c-1,1.4-3,1.9-4.5,1.1   c-0.5-0.3-1.1,0-1.3,0.4c-0.1,0.2-0.2,0.5-0.1,0.8c0.1,0.3,0.3,0.5,0.5,0.6c0,0,0,0,0,0c0.9,0.5,2,0.7,3,0.6v11.6l-3.3-3.3   c-0.4-0.4-1-0.4-1.4,0l-4,4C34.1,35.5,34,35.7,34,36v2h-4v-2c0-0.3-0.1-0.5-0.3-0.7l-4-4c-0.4-0.4-1-0.4-1.4,0l-4,4   C20.1,35.5,20,35.7,20,36v6c0,0.6,0.4,1,1,1s1-0.4,1-1v-5.6l3-3l3,3V55h-1.6l-4.5-4.5l4.8-4.8c0.1-0.1,0.2-0.2,0.2-0.3   c0.1-0.2,0.1-0.5,0-0.8c-0.1-0.2-0.3-0.4-0.5-0.5C26.3,44,26.1,44,26,44H15.6L8.9,31.5C8.6,31,8,30.9,7.5,31.1   C7,31.4,6.9,32,7.1,32.5l7,13c0,0.1,0.1,0.2,0.2,0.2c0,0,0,0,0,0l4.8,4.8L14.6,55H8c-0.6,0-1,0.4-1,1s0.4,1,1,1h27h8h12.7H56   c0.3,0,0.5-0.1,0.7-0.3c0.2-0.2,0.3-0.4,0.3-0.7V36c0-0.3-0.1-0.5-0.3-0.7l-4-4c-0.4-0.4-1-0.4-1.4,0L49,33.6v-9.4   c0.5,0.1,1,0.2,1.5,0.2c3,0,5.5-2.5,5.5-5.5c0-0.4,0-0.7-0.1-1.1c0.7-1,1.1-2.1,1.1-3.3C57,11.5,54.5,9,51.5,9z M44,50h3v2h-3V50z    M47,48h-3v-4h3V48z M44,54h3v1h-3V54z M47,42h-3v-2h3V42z M34,48h-4v-4h4V48z M30,50h4v2h-4V50z M34,40v2h-4v-2H34z M30,54h4v1h-4   V54z M17.4,46h6.2l-3.1,3.1L17.4,46z M20.5,51.9l3.1,3.1h-6.2L20.5,51.9z M36,55V36.4l3-3l3,3V55H36z M52,33.4l3,3V55h-6V36.4   L52,33.4z M47,36v2h-2V22.4c0.3-0.2,0.6-0.3,0.9-0.5c0.3,0.5,0.7,0.9,1.1,1.3V36z"></path><path d="M38.1,19.4c0.1,0,0.1,0,0.2,0c0.5-0.1,0.9-0.6,0.8-1.2c-0.1-0.5-0.6-0.9-1.2-0.8c-0.3,0.1-0.5,0.2-0.6,0.4   c-0.2,0.2-0.2,0.5-0.2,0.8C37.2,19.1,37.6,19.4,38.1,19.4z"></path></g><text x="0" y="79" fill="#000000" font-size="5px" font-weight="bold" font-family="'Helvetica Neue', Helvetica, Arial-Unicode, Arial, Sans-serif">Created by Kukuh Wachyu Bias</text><text x="0" y="84" fill="#000000" font-size="5px" font-weight="bold" font-family="'Helvetica Neue', Helvetica, Arial-Unicode, Arial, Sans-serif">from the Noun Project</text></svg>