<svg xmlns="http://www.w3.org/2000/svg" xmlns:xlink="http://www.w3.org/1999/xlink" fill="#000000" id="Layer_1" viewBox="0 0 290.626 290.626" xml:space="preserve"><g>	<g>		<g>			<path d="M290.61,252.764l-0.014-0.173c-0.023-1.5-0.145-2.972-0.342-4.43l-4.134-53.752c2.873-6.417,4.505-13.341,4.505-20.813    c0-0.108-0.014-0.159-0.014-0.159h0.009l-0.028-0.548c-0.023-1.88-0.159-3.647-0.384-5.47L281.24,37.5h-0.009    C281.057,18.75,264.318,0,243.749,0H51.562C31.007,0,14.277,16.631,14.08,37.139h-0.005L5.052,154.411    c-0.192,1.453-0.319,2.925-0.342,4.43l-0.023,0.173H4.682c0.005,0.028,0.005,0.361,0.005,0.361h0.009l-4.373,74.18    c-0.173,1.575-0.253,3.244-0.281,4.861l-0.033,0.647h0.005c0,0-0.014,0.042-0.014,0.136c0,28.434,23.133,51.427,51.563,51.427    h201.563c20.677,0,37.5-16.823,37.5-37.5C290.624,253.003,290.605,252.886,290.61,252.764z M18.749,37.5h4.688    c0-15.511,12.614-28.125,28.125-28.125h192.187c15.511,0,28.125,12.614,28.125,28.125h4.688l-4.678,0.323l7.106,103.041    c-9.464-11.578-23.841-18.989-39.928-18.989H42.187c-10.116,0-19.289,4.041-26.039,10.575l7.275-94.589L18.749,37.5z     M12.711,182.48c3.788,4.823,8.719,8.7,14.395,11.203c-6.141,3.323-11.513,7.875-15.839,13.294L12.711,182.48z M276.629,192.187    h-0.052l0.005,0.267c-6.998,13.627-21.173,23.17-37.519,23.17H70.312c-12.923,0-23.438,10.514-23.438,23.438    S57.388,262.5,70.312,262.5h168.75v-9.375H70.312c-7.753,0-14.063-6.309-14.063-14.063c0-7.754,6.309-14.062,14.063-14.062    h182.813c14.133,0,25.828,10.486,27.802,24.075l0.319,4.158c-0.063,15.459-12.649,28.017-28.122,28.017H51.562    c-23.241,0-42.15-18.891-42.183-42.122l0.281-4.819c2.372-21.033,20.245-37.434,41.902-37.434h182.813    c10.341,0,18.75-8.409,18.75-18.75s-8.409-18.75-18.75-18.75h-187.5v9.375h187.5c5.17,0,9.375,4.205,9.375,9.375    s-4.205,9.375-9.375,9.375H42.187c-15.473,0-28.059-12.558-28.12-28.012l0.319-4.158c1.973-13.594,13.669-24.08,27.802-24.08    h196.875c21.431,0,39.136,16.073,41.803,36.787l0.38,5.33C281.227,180.206,279.544,187.5,276.629,192.187z M279.163,226.2    c-3.891-3.764-8.592-6.675-13.809-8.484c4.645-2.77,8.813-6.234,12.37-10.27L279.163,226.2z"></path>			<rect x="46.874" y="18.75" width="9.375" height="9.375"></rect>			<rect x="65.624" y="18.75" width="9.375" height="9.375"></rect>			<rect x="84.374" y="18.75" width="9.375" height="9.375"></rect>			<rect x="234.374" y="18.75" width="9.375" height="9.375"></rect>			<rect x="215.624" y="18.75" width="9.375" height="9.375"></rect>			<rect x="79.687" y="98.438" width="9.375" height="9.375"></rect>			<rect x="37.499" y="98.438" width="32.813" height="9.375"></rect>		</g>	</g></g></svg>