<svg xmlns="http://www.w3.org/2000/svg" xmlns:xlink="http://www.w3.org/1999/xlink" id="Layer_1" viewBox="0 0 512 512" xml:space="preserve"><g>	<rect x="40.851" y="327.713" style="fill:#D1F1FF;" width="430.298" height="65.362"></rect>	<rect x="40.851" y="151.606" style="fill:#D1F1FF;" width="430.298" height="65.362"></rect>	<polygon style="fill:#D1F1FF;" points="40.851,8.17 51.745,503.83 73.532,503.83 73.532,40.851  "></polygon></g><polygon style="fill:#FFFFFF;" points="51.745,40.851 51.745,503.83 8.17,503.83 8.17,40.851 40.851,8.17 "></polygon><polygon style="fill:#D1F1FF;" points="256,8.17 266.894,503.83 288.681,503.83 288.681,40.851 "></polygon><polygon style="fill:#FFFFFF;" points="266.894,40.851 266.894,503.83 223.319,503.83 223.319,40.851 256,8.17 "></polygon><polygon style="fill:#D1F1FF;" points="471.149,8.17 482.043,503.83 503.83,503.83 503.83,40.851 "></polygon><polygon style="fill:#FFFFFF;" points="482.043,40.851 482.043,503.83 438.468,503.83 438.468,40.851 471.149,8.17 "></polygon><polygon style="fill:#D1F1FF;" points="148.426,8.17 159.319,503.83 181.106,503.83 181.106,40.851 "></polygon><polygon style="fill:#FFFFFF;" points="159.319,40.851 159.319,503.83 115.745,503.83 115.745,40.851 148.426,8.17 "></polygon><polygon style="fill:#D1F1FF;" points="363.574,8.17 374.468,503.83 396.255,503.83 396.255,40.851 "></polygon><polygon style="fill:#FFFFFF;" points="374.468,40.851 374.468,503.83 330.894,503.83 330.894,40.851 363.574,8.17 "></polygon><path d="M509.608,35.073L476.927,2.392c-3.192-3.19-8.364-3.19-11.555,0l-32.681,32.681c-1.533,1.533-2.393,3.61-2.393,5.778 v102.582h-25.872V40.851c0-2.167-0.861-4.244-2.392-5.778L369.352,2.392c-3.192-3.19-8.364-3.19-11.555,0l-32.681,32.681 c-1.532,1.533-2.392,3.61-2.392,5.778v102.582h-25.873V40.851c0-2.167-0.861-4.244-2.392-5.778L261.778,2.392 c-3.192-3.19-8.364-3.19-11.555,0l-32.681,32.681c-1.532,1.533-2.392,3.61-2.392,5.778v102.582h-25.872V40.851 c0-2.167-0.861-4.244-2.392-5.778L154.205,2.392c-3.192-3.19-8.364-3.19-11.555,0l-32.681,32.681 c-1.534,1.533-2.394,3.61-2.394,5.778v102.582H81.702V40.851c0-2.167-0.861-4.244-2.392-5.778L46.629,2.392 c-3.192-3.19-8.364-3.19-11.555,0L2.393,35.073C0.861,36.606,0,38.683,0,40.851V503.83c0,4.513,3.657,8.17,8.17,8.17h65.362 c4.513,0,8.17-3.657,8.17-8.17V401.248h25.872V503.83c0,4.513,3.657,8.17,8.17,8.17h65.362c4.513,0,8.17-3.657,8.17-8.17V401.248 h25.872V503.83c0,4.513,3.657,8.17,8.17,8.17h65.362c4.513,0,8.17-3.657,8.17-8.17V401.248h25.872V503.83 c0,4.513,3.657,8.17,8.17,8.17h65.362c4.513,0,8.17-3.657,8.17-8.17V401.248h25.872V503.83c0,4.513,3.657,8.17,8.17,8.17h65.362 c4.513,0,8.17-3.657,8.17-8.17V40.851C512,38.683,511.139,36.606,509.608,35.073z M404.426,225.135h25.872v94.411h-25.872V225.135z  M430.298,159.773v49.021h-25.872v-49.021H430.298z M296.851,225.135h25.872v94.411h-25.872V225.135z M322.723,159.773v49.021 h-25.872v-49.021H322.723z M189.277,225.135h25.872v94.411h-25.872V225.135z M215.149,159.773v49.021h-25.872v-49.021H215.149z  M107.574,319.546H81.702v-94.411h25.872V319.546z M65.362,495.66H16.34V44.235l24.511-24.511l24.511,24.511V495.66z  M81.702,384.907v-49.021h25.872v49.021H81.702z M172.936,495.66h-49.021V200.624c0-4.513-3.657-8.17-8.17-8.17 c-4.513,0-8.17,3.657-8.17,8.17v8.17H81.702v-49.021h25.872v8.17c0,4.513,3.657,8.17,8.17,8.17c4.513,0,8.17-3.657,8.17-8.17V44.235 l24.511-24.511l24.511,24.511V495.66z M189.277,384.907v-49.021h25.872v49.021H189.277z M280.511,495.66h-49.021V44.235L256,19.724 l24.511,24.511V495.66z M388.085,495.66h-49.021V376.737c0-4.513-3.657-8.17-8.17-8.17c-4.513,0-8.17,3.657-8.17,8.17v8.17h-25.872 v-49.021h25.872v8.17c0,4.513,3.657,8.17,8.17,8.17c4.513,0,8.17-3.657,8.17-8.17V44.235l24.511-24.511l24.511,24.511V495.66z  M404.426,384.907v-49.021h25.872v49.021H404.426z M495.66,495.66h-49.021V44.235l24.511-24.511l24.511,24.511V495.66z"></path></svg>