<svg xmlns="http://www.w3.org/2000/svg" xmlns:xlink="http://www.w3.org/1999/xlink" fill="#000000" height="800px" width="800px" id="Capa_1" viewBox="0 0 404.34 404.34" xml:space="preserve"><path d="M350.4,139.688C345.824,61.892,281.094,0,202.17,0S58.515,61.892,53.938,139.688H53.67V404.34h297V139.688H350.4z  M333.367,139.688h-38.26c-0.964-11.852-4.146-23.084-9.131-33.282l32.695-18.838C326.953,103.337,332.124,120.983,333.367,139.688z  M279.879,109.918c4.41,9.153,7.272,19.185,8.203,29.769h-49.028c-0.442-1.809-1.013-3.567-1.701-5.267L279.879,109.918z  M234.139,128.193c-3.034-4.758-7.082-8.806-11.84-11.839l27.473-41.038c10.952,7.302,20.152,17.03,26.825,28.415L234.139,128.193z  M315.253,81.459l-32.587,18.775c-7.211-12.315-17.155-22.841-28.998-30.74l20.664-30.868 C290.998,49.608,305.026,64.274,315.253,81.459z M205.17,17.038c23.004,0.517,44.564,6.974,63.215,17.89l-20.686,30.9 c-12.653-7.135-27.123-11.408-42.529-11.938V17.038z M205.17,60.909c13.967,0.519,27.09,4.366,38.613,10.769l-27.747,41.448 c-3.409-1.377-7.058-2.28-10.866-2.625V60.909z M231.806,139.688h-60.271c3.924-12.922,15.948-22.354,30.136-22.354 S227.882,126.766,231.806,139.688z M127.113,103.944c6.613-11.358,15.744-21.069,26.613-28.392l27.314,40.802 c-4.758,3.034-8.806,7.082-11.84,11.839L127.113,103.944z M165.987,134.42c-0.689,1.7-1.259,3.458-1.701,5.267h-48.528 c0.923-10.497,3.745-20.452,8.094-29.544L165.987,134.42z M159.692,71.881c11.475-6.448,24.55-10.362,38.478-10.96v49.58 c-3.809,0.345-7.457,1.248-10.866,2.625L159.692,71.881z M198.17,17.066V53.91c-15.366,0.609-29.791,4.941-42.393,12.122 l-20.539-30.68C153.783,24.34,175.246,17.755,198.17,17.066z M129.314,39.083l20.511,30.639 c-11.759,7.92-21.627,18.439-28.777,30.727L88.832,81.888C98.939,64.758,112.814,50.106,129.314,39.083z M85.435,88.009 l32.317,18.62c-4.922,10.139-8.063,21.294-9.02,33.059h-37.76C72.204,121.158,77.289,103.666,85.435,88.009z M185.504,387.34H70.67 v-21.17h114.834V387.34z M185.504,359.17H70.67v-23h114.834V359.17z M185.504,329.17H70.67v-23h114.834V329.17z M185.504,299.17 H70.67v-23h114.834V299.17z M185.504,269.17H70.67v-23h114.834V269.17z M185.504,239.17H70.67v-23h114.834V239.17z M185.504,209.17 H70.67v-23h114.834V209.17z M185.504,179.17H70.67v-22.482h114.834V179.17z M198.837,392.34h-6.333V152.321h6.333V392.34z  M211.836,392.34h-5.999V152.321h5.999V392.34z M333.67,387.34H218.836v-21.17H333.67V387.34z M333.67,359.17H218.836v-23H333.67 V359.17z M333.67,329.17H218.836v-23H333.67V329.17z M333.67,299.17H218.836v-23H333.67V299.17z M333.67,269.17H218.836v-23H333.67 V269.17z M333.67,239.17H218.836v-23H333.67V239.17z M333.67,209.17H218.836v-23H333.67V209.17z M333.67,179.17H218.836v-22.482 H333.67V179.17z"></path></svg>