<svg xmlns="http://www.w3.org/2000/svg" xmlns:xlink="http://www.w3.org/1999/xlink" fill="#000000" height="800px" width="800px" id="Layer_1" viewBox="0 0 503.607 503.607" xml:space="preserve"><g transform="translate(1 1)">	<g>		<g>			<path d="M464.836,15.787H36.77C15.787,15.787-1,32.574-1,53.557v256v37.771c0,20.984,16.787,37.77,37.771,37.77h161.154    l-12.59,50.361h-1.679c-23.502,0-41.967,18.466-41.967,41.967c0,5.036,3.357,8.393,8.393,8.393h201.443    c5.036,0,8.393-3.357,8.393-8.393c0-23.502-18.466-41.967-41.967-41.967h-1.679l-12.59-50.361h161.154    c20.984,0,37.771-16.787,37.771-37.77v-37.771v-256C502.607,32.574,485.82,15.787,464.836,15.787z M15.787,53.557    c0-11.751,9.233-20.984,20.984-20.984h428.066c11.751,0,20.984,9.233,20.984,20.984v247.607H15.787V53.557z M342.292,469.033    H160.154c3.357-10.072,12.59-16.787,23.502-16.787h8.393h117.508h9.233C329.702,452.246,338.934,458.961,342.292,469.033z     M298.646,435.459h-95.685l12.59-50.361h70.505L298.646,435.459z M485.82,347.328c0,11.751-9.233,20.984-20.984,20.984H292.771    h-83.934H36.77c-11.751,0-20.984-9.233-20.984-20.984v-29.377H485.82V347.328z"></path>			<path d="M124.902,103.079c-3.357,3.357-3.357,8.393,0,11.751c3.357,3.357,8.393,3.357,11.751,0    c62.951-62.951,165.351-62.951,228.302,0c1.679,1.679,3.357,2.518,5.875,2.518c2.518,0,4.197-0.839,5.875-2.518    c3.357-3.357,3.357-8.393,0-11.751C307.879,33.413,194.567,33.413,124.902,103.079z"></path>			<path d="M250.803,100.561c-34.413,0-66.308,13.43-90.649,37.771c-3.357,3.357-3.357,8.393,0,11.751    c3.357,3.357,8.393,3.357,11.751,0c20.984-20.984,48.682-32.734,78.898-32.734c30.216,0,57.915,11.751,78.898,32.734    c1.679,1.679,3.357,2.518,5.875,2.518c2.518,0,4.197-0.839,5.875-2.518c3.357-3.357,3.357-8.393,0-11.751    C317.112,113.99,285.216,100.561,250.803,100.561z"></path>			<path d="M195.407,173.584c-3.357,3.357-3.357,8.393,0,11.751c1.679,1.679,3.357,2.518,5.875,2.518s4.197-0.839,5.875-2.518    c24.341-24.341,62.951-24.341,87.292,0c3.357,3.357,8.393,3.357,11.751,0c3.357-3.357,3.357-8.393,0-11.751    C275.984,143.367,225.623,143.367,195.407,173.584z"></path>			<path d="M250.803,200.443c-23.502,0-41.967,18.466-41.967,41.967c0,23.502,18.466,41.967,41.967,41.967    s41.967-18.466,41.967-41.967C292.771,218.908,274.305,200.443,250.803,200.443z M250.803,267.59    c-14.269,0-25.18-10.911-25.18-25.18c0-14.269,10.911-25.18,25.18-25.18c14.269,0,25.18,10.911,25.18,25.18    C275.984,256.679,265.072,267.59,250.803,267.59z"></path>		</g>	</g></g></svg>