<svg xmlns="http://www.w3.org/2000/svg" xmlns:xlink="http://www.w3.org/1999/xlink" fill="#000000" height="800px" width="800px" id="moscito-net-anna-vital" viewBox="0 0 256 256" xml:space="preserve"><path id="XMLID_6_" d="M151.4,84.7l-26.7,10.5c-1.1,0.4-2.4,0.2-3.3-0.7L102.8,76l-13.8,6.6l3.8,3.8c0.1,0.1,0.2,0.3,0.3,0.4 c0.1,0.1,0.2,0.2,0.2,0.3c0.5,0.9,0.5,1.9,0.1,2.8l14.5,16.7c0.3,0.3,0.3,0.7,0.1,1l0,0c0,0-0.1,0-0.1,0l0,0c0,0,0,0.1,0,0.1l0,0 c-0.3,0.2-0.7,0.2-1-0.1L90.2,93.2c-0.9,0.4-1.9,0.4-2.8-0.1c-0.1-0.1-0.2-0.1-0.3-0.2c-0.1-0.1-0.3-0.1-0.4-0.3l-3.8-3.8l-6.6,13.8 L94.8,121c0.9,0.9,1.1,2.2,0.7,3.3L85,151.1c-0.3,0.8-0.9,1.4-1.6,1.7c-0.8,0.3-1.6,0.3-2.4,0c-0.8-0.3-1.4-0.9-1.7-1.6 c-0.3-0.8-0.3-1.6,0-2.4L89,124l-18.5-18.5c-0.9-0.9-1.1-2.2-0.7-3.4l6.6-15.5c-0.4-0.4-0.9-0.7-1.3-1.1c-1.2-1.1-2.1-2.1-2.8-3 c-5.3,12.9-21.4,42.3-32.4,44.8c-2.2,0.5-4.1-0.1-5.7-1.6c-2.5-2.5-4.7-9.3-4-17.2c0.9-10.2,6.3-19.2,15.2-25.5 c0.4-0.3,0.9-0.6,1.3-0.9L8.3,73.2c-1.7-0.4-2.7-2-2.3-3.7c0.4-1.6,2.1-2.7,3.7-2.3L51,76.8c0,0,9.1-1.2,9.6-1.4L54,74 c-0.7-0.1-1.3-0.5-1.8-1.1L33.8,54.1L5.9,49c-1.7-0.3-2.8-1.9-2.5-3.6c0.3-1.6,2-2.8,3.6-2.5l29,5.3c0.7,0.1,1.4,0.5,1.9,1.1 l18.4,18.8l5.3,1.1l2.3,0.4L44.3,50.1c-0.1-0.1-0.1-0.1-0.1-0.2c-0.2-0.2-0.4-0.5-0.5-0.7c0-0.1-0.1-0.1-0.1-0.2 c-0.8-1.6-0.5-3.6,0.8-4.9l0,0c1.3-1.3,3.3-1.6,4.9-0.8c0.1,0,0.1,0.1,0.2,0.1c0.3,0.1,0.5,0.3,0.7,0.5c0.1,0,0.1,0.1,0.2,0.1 L70,63.6l-0.4-2.3L68.5,56L49.7,37.7c-0.6-0.5-1-1.1-1.1-1.9l-5.3-29c-0.3-1.6,0.9-3.3,2.5-3.6C47.4,2.9,49,4,49.3,5.6l5.1,27.9 l18.8,18.4c0.6,0.5,1,1.1,1.1,1.8l1.4,6.7c0.2-0.5,1.4-9.6,1.4-9.6L67.5,9.4c-0.4-1.6,0.7-3.3,2.3-3.7c1.6-0.4,3.3,0.6,3.7,2.3 l8.9,38.5c0.3-0.4,0.6-0.9,0.9-1.3c6.2-8.9,15.3-14.3,25.5-15.2c7.9-0.7,14.7,1.5,17.2,4c1.5,1.5,2.1,3.5,1.6,5.7 C125,50.6,95.6,66.8,82.7,72c0.9,0.7,1.9,1.6,3,2.8c0.4,0.4,0.8,0.9,1.1,1.3l15.5-6.6c1.2-0.5,2.5-0.2,3.4,0.7l18.5,18.5l24.9-9.8 c0.8-0.3,1.6-0.3,2.4,0c0.8,0.3,1.3,0.9,1.6,1.7c0.3,0.8,0.3,1.6,0,2.4C152.7,83.8,152.1,84.4,151.4,84.7z M74.8,221 c9.3,0,16.8-7.5,16.8-16.8c0-9.3-7.5-16.8-16.8-16.8c-9.3,0-16.8,7.5-16.8,16.8C58.1,213.5,65.5,221,74.8,221z M215.2,197H125v48 h104v-34.6C228,203.1,222.5,197,215.2,197z M108,196.1c-4.5,0-8,3.6-8,8.2V229H69.6c-4.5,0-8.2,3.5-8.2,8c0,4.5,3.6,8,8.2,8h38.1 c4.5,0,8.3-3.3,8.3-7.9v-32.9C116,199.7,112.5,196.1,108,196.1z M188.3,138.7l-2.7-4.3c-6.6,4.2-13.7,8.1-21.1,11.7l2.2,4.6 C174.3,147,181.5,142.9,188.3,138.7z M217.3,116.5l-3.5-3.7c-5.7,5.3-11.9,10.4-18.6,15.2l3,4.2C205,127.2,211.5,121.9,217.3,116.5z  M133,164.2c7.9-2.6,15.6-5.5,23-8.6l-2-4.7c-7.2,3.1-14.8,6-22.6,8.5L133,164.2z M85.4,170.2c-7.9,1.2-16,2.1-24,2.8l0.4,5.1 c8.2-0.6,16.4-1.6,24.4-2.8L85.4,170.2z M250.5,53.5c-1.9,7.5-4.7,15-8.4,22.2l4.6,2.3c3.8-7.6,6.8-15.4,8.8-23.3L250.5,53.5z  M96.8,168.2l1,5c8.1-1.6,16.1-3.5,23.9-5.6l-1.4-4.9C112.7,164.8,104.8,166.6,96.8,168.2z M221.9,104.6l3.8,3.5 c5.8-6.3,10.9-12.9,15.1-19.6l-4.3-2.8C232.3,92.2,227.4,98.5,221.9,104.6z M37,173.9l-2.5,0l-0.2,15.4l5.1,0.1l0.1-10.3 c3.5,0,7-0.1,10.4-0.3l-0.2-5.1C45.5,173.8,41.3,173.9,37,173.9z M33.7,229.9l5.1,0.1c0.1-9.2,0.3-18.9,0.4-27.5l-5.1-0.1 C34,211.1,33.8,220.8,33.7,229.9z M33.3,256l5.1,0.1c0.1-3.5,0.1-7.9,0.2-12.8l-5.1-0.1C33.4,248,33.4,252.4,33.3,256z"></path></svg>