<svg xmlns="http://www.w3.org/2000/svg" xmlns:xlink="http://www.w3.org/1999/xlink" fill="#000000" height="800px" width="800px" viewBox="0 0 360.841 360.841"><g><path d="m353.341,52.574h-205.71c1.464-10.674 2.223-18.632 2.447-21.139 0.198-2.213-0.596-4.4-2.167-5.972-1.571-1.57-3.751-2.368-5.972-2.166-9.042,0.809-89.004,8.563-111.801,31.36-11.831,11.83-18.346,27.56-18.346,44.29 0,14.202 4.711,27.674 13.368,38.66l-22.963,22.964c-2.929,2.93-2.929,7.678 8.88178e-16,10.607 1.464,1.464 3.384,2.196 5.303,2.196s3.839-0.732 5.303-2.196l22.964-22.964c10.987,8.657 24.457,13.368 38.66,13.368 0.473,0 0.942-0.024 1.414-0.034v168.526c0,4.143 3.358,7.5 7.5,7.5h270c4.142,0 7.5-3.357 7.5-7.5v-270c0-4.142-3.358-7.5-7.5-7.5zm-7.5,15v39.208h-209.234c3.797-12.82 6.653-26.779 8.741-39.208h200.493zm-299.374,69.941l13.709-13.709h41.368c4.142,0 7.5-3.357 7.5-7.5s-3.358-7.5-7.5-7.5h-26.369l31.061-31.061c2.929-2.93 2.929-7.678 0-10.607-2.929-2.928-7.678-2.928-10.606,0l-31.062,31.062v-26.368c0-4.143-3.358-7.5-7.5-7.5s-7.5,3.357-7.5,7.5v41.368l-13.708,13.708c-5.884-8.079-9.068-17.774-9.068-27.96 0-12.724 4.955-24.687 13.952-33.683 4.411-4.411 17.765-12.95 57.645-20.586 14.09-2.698 27.363-4.471 35.769-5.462-0.991,8.405-2.764,21.679-5.462,35.769-3.081,16.089-6.308,27.856-9.352,36.464-0.086,0.21-0.164,0.424-0.231,0.643-4.41,12.28-8.417,17.95-11.003,20.536-8.997,8.998-20.959,13.953-33.683,13.953-10.187,0.001-19.881-3.183-27.96-9.067zm44.373,185.059v-163.17c10.443-2.818 20.022-8.313 27.876-16.167 4.918-4.919 9.135-12.501 12.735-21.455h214.39v200.792h-255.001z"></path><path d="m218.34,139.146c-46.081,0-83.57,37.489-83.57,83.57s37.489,83.57 83.57,83.57 83.57-37.489 83.57-83.57-37.489-83.57-83.57-83.57zm0,15c28.858,0 53.591,17.928 63.694,43.224-15.349,1.6-24.338,7.746-32.396,13.262-8.654,5.925-16.128,11.042-31.85,11.042s-23.195-5.117-31.849-11.042c-7.871-5.389-16.629-11.382-31.339-13.147 10.075-25.356 34.839-43.339 63.74-43.339zm0,137.141c-37.81,0-68.57-30.761-68.57-68.57 0-3.588 0.28-7.112 0.814-10.553 12.428,0.969 19.197,5.585 26.882,10.847 9.355,6.404 19.958,13.664 40.323,13.664 20.365,0 30.968-7.26 40.323-13.664 7.906-5.413 14.847-10.138 27.972-10.917 0.541,3.463 0.826,7.01 0.826,10.623 0.001,37.809-30.76,68.57-68.57,68.57z"></path><path d="m302.141,93.764h20.893c4.142,0 7.5-3.357 7.5-7.5s-3.358-7.5-7.5-7.5h-20.893c-4.142,0-7.5,3.357-7.5,7.5s3.358,7.5 7.5,7.5z"></path><path d="m248.612,93.764h20.893c4.142,0 7.5-3.357 7.5-7.5s-3.358-7.5-7.5-7.5h-20.893c-4.142,0-7.5,3.357-7.5,7.5s3.358,7.5 7.5,7.5z"></path></g></svg>