<svg xmlns="http://www.w3.org/2000/svg" xmlns:xlink="http://www.w3.org/1999/xlink" fill="#000000" id="Capa_1" width="800px" height="800px" viewBox="0 0 84.012 84.011" xml:space="preserve"><g>	<path d="M0,13.117v57.777h2.549V16.819l4.407,2.742v47.726H8.23v-7.908l5.462,5.463l5.556-5.558l5.556,5.558l5.567-5.568  l5.567,5.568l5.498-5.498l5.458,5.459l5.557-5.557l5.557,5.557l5.566-5.566l5.566,5.566l5.789-5.787v8.271h1.276V19.686  l5.257-3.354v54.563h2.549V13.117H0z M19.033,59.067l-5.34,5.342l-5.462-5.463v-0.409l5.132-5.134l0.331,0.33l0.33-0.33l5.01,5.011  l-0.328,0.326L19.033,59.067z M13.693,20.172l5.34,5.34l-0.327,0.328l0.327,0.326l-5.01,5.01l-0.33-0.328l-0.331,0.328L8.23,26.045  v-0.412L13.693,20.172z M8.231,25.201v-5.287h5.288L8.231,25.201z M69.143,52.602l-0.33,0.329l-5.021-5.02l0.317-0.318  l-0.317-0.315l4.81-4.812l0.541,0.541l0.541-0.541l5.127,5.127l-5.337,5.338L69.143,52.602z M69.257,53.149l-0.114,0.112  l-0.113-0.112l0.113-0.115L69.257,53.149z M58.01,52.602l-0.33,0.329l-5.01-5.01l0.327-0.328l-0.327-0.325l4.8-4.802l0.54,0.541  l0.54-0.541l4.812,4.812l-0.317,0.315l0.317,0.318l-5.021,5.02L58.01,52.602z M58.125,53.149l-0.115,0.112l-0.113-0.112  l0.113-0.115L58.125,53.149z M46.896,52.602l-0.33,0.329l-4.914-4.911l0.385-0.388l-0.423-0.424l4.741-4.742l0.541,0.541  l0.541-0.541l4.799,4.802l-0.326,0.325l0.326,0.328l-5.01,5.01L46.896,52.602z M47.011,53.149l-0.114,0.112l-0.115-0.112  l0.115-0.115L47.011,53.149z M35.94,52.64l-0.331,0.33l-5.021-5.021l0.317-0.315l-0.317-0.316l4.811-4.811l0.541,0.541l0.54-0.541  l4.703,4.703l-0.385,0.385l0.423,0.426l-4.952,4.951L35.94,52.64z M36.053,53.188L35.94,53.3l-0.115-0.112l0.115-0.115  L36.053,53.188z M24.805,52.64l-0.33,0.33l-5.01-5.01l0.327-0.328l-0.327-0.326l4.8-4.801l0.54,0.541l0.541-0.541l4.811,4.812  l-0.317,0.315l0.317,0.316l-5.021,5.021L24.805,52.64z M24.92,53.188L24.805,53.3l-0.114-0.112l0.114-0.115L24.92,53.188z   M19.249,26.383l5.01,5.01l-5.01,5.01l-5.011-5.01L19.249,26.383z M19.138,25.84l0.111-0.111l0.111,0.111l-0.111,0.111  L19.138,25.84z M24.805,31.94l0.331-0.33l5.021,5.02l-0.317,0.318l0.317,0.316l-4.811,4.811l-0.541-0.541l-0.54,0.541l-4.8-4.801  l0.327-0.326l-0.327-0.328l5.01-5.01L24.805,31.94z M24.691,31.393l0.114-0.113l0.115,0.113l-0.115,0.115L24.691,31.393z   M30.372,26.373l5.021,5.02l-5.021,5.021l-5.021-5.021L30.372,26.373z M30.271,25.84l0.101-0.102l0.101,0.102l-0.101,0.102  L30.271,25.84z M35.94,31.94l0.33-0.33l4.914,4.912l-0.385,0.387l0.423,0.424l-4.741,4.742l-0.54-0.541L35.4,42.075l-4.811-4.811  l0.317-0.316l-0.317-0.318l5.021-5.02L35.94,31.94z M35.825,31.393l0.115-0.113l0.113,0.113l-0.113,0.115L35.825,31.393z   M41.438,26.442l4.914,4.912l-4.953,4.953l-4.913-4.914L41.438,26.442z M41.229,25.801l0.169-0.17l0.208,0.209l-0.169,0.17  L41.229,25.801z M46.896,31.901l0.33-0.33l5.012,5.01l-0.328,0.328l0.328,0.326l-4.801,4.801l-0.541-0.54l-0.539,0.54l-4.704-4.703  l0.385-0.385l-0.423-0.426l4.953-4.951L46.896,31.901z M46.783,31.354l0.113-0.113l0.115,0.113l-0.115,0.115L46.783,31.354z   M52.454,26.344l5.01,5.01l-5.01,5.012l-5.011-5.012L52.454,26.344z M52.342,25.801l0.112-0.111l0.11,0.111l-0.11,0.111  L52.342,25.801z M58.01,31.901l0.33-0.33l5.021,5.021l-0.317,0.316l0.317,0.316l-4.812,4.811l-0.54-0.541l-0.54,0.541l-4.8-4.801  l0.327-0.326L52.67,36.58l5.01-5.01L58.01,31.901z M57.896,31.354l0.113-0.113l0.115,0.113l-0.115,0.115L57.896,31.354z   M63.576,26.334l5.021,5.02l-5.021,5.021l-5.021-5.021L63.576,26.334z M63.477,25.801l0.1-0.102l0.102,0.102l-0.102,0.102  L63.477,25.801z M63.576,47.063l-4.811-4.812l4.811-4.811l4.812,4.811L63.576,47.063z M63.677,47.593l-0.101,0.103l-0.102-0.103  l0.102-0.1L63.677,47.593z M63.576,37.01l-0.1-0.102l0.1-0.102l0.102,0.102L63.576,37.01z M58.334,42.251l-0.324,0.324  l-0.324-0.324l0.324-0.324L58.334,42.251z M52.454,47.05l-4.8-4.799l4.8-4.801l4.799,4.801L52.454,47.05z M52.564,47.593  l-0.11,0.113l-0.112-0.113l0.112-0.11L52.564,47.593z M52.342,36.908l0.112-0.111l0.11,0.111l-0.11,0.111L52.342,36.908z   M47.221,42.251l-0.324,0.324l-0.324-0.324l0.324-0.324L47.221,42.251z M41.399,46.992l-4.703-4.703l4.742-4.742l4.703,4.705  L41.399,46.992z M41.607,47.632l-0.169,0.17l-0.208-0.209l0.169-0.168L41.607,47.632z M41.229,36.908l0.169-0.17l0.208,0.209  l-0.169,0.168L41.229,36.908z M36.263,42.289l-0.324,0.324l-0.325-0.324l0.325-0.324L36.263,42.289z M30.372,47.099l-4.811-4.811  l4.811-4.811l4.811,4.811L30.372,47.099z M30.473,47.632l-0.101,0.103l-0.101-0.103l0.101-0.102L30.473,47.632z M30.271,36.947  l0.101-0.102l0.101,0.102l-0.101,0.1L30.271,36.947z M25.13,42.289l-0.325,0.324l-0.324-0.324l0.324-0.324L25.13,42.289z   M19.249,36.834l0.111,0.113l-0.111,0.109l-0.111-0.109L19.249,36.834z M19.249,37.49l4.8,4.799l-4.8,4.801l-4.8-4.801  L19.249,37.49z M19.249,47.522l0.111,0.11l-0.111,0.111l-0.111-0.111L19.249,47.522z M19.249,48.175l5.01,5.013l-5.01,5.01  l-5.011-5.01L19.249,48.175z M30.372,48.166l5.021,5.021l-5.021,5.02l-5.021-5.02L30.372,48.166z M41.438,48.235l4.914,4.914  l-4.953,4.95l-4.913-4.911L41.438,48.235z M52.454,48.138l5.01,5.011l-5.01,5.01l-5.011-5.01L52.454,48.138z M63.576,48.126  l5.021,5.021l-5.021,5.021l-5.021-5.021L63.576,48.126z M68.818,42.251l0.324-0.324l0.324,0.324l-0.324,0.324L68.818,42.251z   M69.143,41.494l-0.541,0.541l-4.81-4.811l0.317-0.316l-0.317-0.316l5.021-5.021l0.33,0.33l0.331-0.33l5.337,5.338l-5.127,5.127  L69.143,41.494z M69.029,31.354l0.113-0.113l0.114,0.113l-0.114,0.115L69.029,31.354z M69.143,30.809l-0.33,0.33l-5.021-5.02  l0.317-0.318l-0.317-0.316l5.351-5.352l5.668,5.668l-5.337,5.338L69.143,30.809z M63.576,25.268l-5.354-5.354h10.708L63.576,25.268  z M63.359,25.485l-0.316,0.316l0.316,0.318l-5.021,5.02l-0.33-0.33l-0.33,0.33l-5.01-5.01l0.327-0.328l-0.327-0.326l5.34-5.342  L63.359,25.485z M52.454,25.258l-5.345-5.344h10.688L52.454,25.258z M52.236,25.475l-0.326,0.326l0.326,0.328l-5.01,5.01  l-0.33-0.33l-0.33,0.33l-4.915-4.914l0.385-0.385l-0.423-0.424l5.281-5.283L52.236,25.475z M41.399,25.199l-5.285-5.285h10.57  L41.399,25.199z M41.183,25.416l-0.385,0.385l0.423,0.424l-4.952,4.951l-0.33-0.328l-0.331,0.328l-5.021-5.02l0.317-0.316  l-0.317-0.318l5.352-5.35L41.183,25.416z M30.372,25.307l-5.393-5.393h10.786L30.372,25.307z M30.156,25.522l-0.317,0.318  l0.317,0.316l-5.021,5.02l-0.331-0.328l-0.33,0.328l-5.01-5.01l0.327-0.326l-0.327-0.328l5.34-5.34L30.156,25.522z M19.249,25.297  l-5.382-5.383h10.764L19.249,25.297z M13.807,31.393l-0.114,0.115l-0.114-0.115l0.114-0.113L13.807,31.393z M13.147,31.393  l-4.916,4.916v-9.832L13.147,31.393z M13.362,31.61l0.331,0.33l0.33-0.33l5.01,5.01l-0.327,0.327l0.327,0.326l-4.8,4.801  l-0.54-0.541l-0.541,0.541l-4.921-4.922V36.74L13.362,31.61z M14.017,42.289l-0.324,0.324l-0.324-0.324l0.324-0.324L14.017,42.289z   M12.936,42.289L8.23,46.996v-9.412L12.936,42.289z M13.152,42.505l0.541,0.541l0.54-0.541l4.8,4.801l-0.327,0.326l0.327,0.328  l-5.01,5.01l-0.33-0.33l-0.331,0.33L8.23,47.837v-0.41L13.152,42.505z M13.807,53.188L13.693,53.3l-0.114-0.112l0.114-0.115  L13.807,53.188z M13.147,53.188l-4.916,4.914V48.27L13.147,53.188z M19.249,58.852l-0.111-0.111l0.111-0.11l0.111,0.11  L19.249,58.852z M30.156,59.056l-5.351,5.353l-5.34-5.342l0.327-0.326l-0.327-0.327l5.01-5.011l0.33,0.33l0.331-0.33l5.021,5.021  L29.84,58.74L30.156,59.056z M30.372,58.839l-0.101-0.1l0.101-0.102l0.101,0.102L30.372,58.839z M35.94,64.408l-5.352-5.352  l0.317-0.316l-0.317-0.316l5.021-5.021l0.331,0.33l0.33-0.33l4.914,4.914l-0.385,0.385l0.423,0.425L35.94,64.408z M41.438,58.91  l-0.208-0.209l0.169-0.17l0.208,0.209L41.438,58.91z M52.236,59.029l-5.34,5.34l-5.244-5.244l0.385-0.385l-0.423-0.424l4.952-4.951  l0.33,0.328l0.33-0.328l5.012,5.01l-0.328,0.326L52.236,59.029z M52.454,58.813l-0.112-0.111l0.112-0.11l0.11,0.11L52.454,58.813z   M63.359,59.018l-5.351,5.353l-5.34-5.341l0.327-0.328l-0.327-0.325l5.01-5.011l0.33,0.328l0.33-0.328l5.021,5.021l-0.316,0.315  L63.359,59.018z M63.576,58.802l-0.1-0.102l0.1-0.1l0.102,0.1L63.576,58.802z M69.143,64.369l-5.351-5.352l0.317-0.316  l-0.317-0.316l5.021-5.02l0.33,0.328l0.331-0.328l5.337,5.336L69.143,64.369z M74.932,58.39l-5.242-5.241l5.242-5.242V58.39z   M74.932,47.283L69.9,42.251l5.031-5.033V47.283z M74.932,36.596l-5.242-5.242l5.242-5.24V36.596z M74.932,25.49l-5.576-5.576  h5.576V25.49z M75.477,18.639H7.889L3.11,15.666h77.029L75.477,18.639z"></path></g></svg>