<svg xmlns="http://www.w3.org/2000/svg" xmlns:xlink="http://www.w3.org/1999/xlink" id="Uploaded to svgrepo.com" width="800px" height="800px" viewBox="0 0 32 32" xml:space="preserve"><style type="text/css">	.feather_een{fill:#0B1719;}</style><path class="feather_een" d="M30.487,11.137l-1.362-4.085C28.716,5.826,27.57,5,26.279,5h-2.323c-4.844,0-9.524,1.758-13.17,4.948 l-0.347,0.304c-1.326,1.16-2.493,2.491-3.47,3.957l-6.01,9.014C0.738,23.555,0.976,24,1.375,24h25.066c0.552,0,1-0.448,1-1v-1 l0.63-0.63C30.749,18.692,31.684,14.73,30.487,11.137z M7.8,14.764c0.928-1.393,2.038-2.658,3.297-3.76l0.346-0.303 C14.909,7.67,19.352,6,23.956,6h2.323c0.862,0,1.625,0.55,1.897,1.368l1.362,4.086c0.501,1.503,0.576,3.062,0.29,4.547h-1.81 c-0.006,0-0.012,0.001-0.018,0.001V15.5c0-0.828-0.672-1.5-1.5-1.5S25,14.672,25,15.5v0.674c-0.334,0.033-0.667,0.072-1,0.116V15.5 c0-0.828-0.672-1.5-1.5-1.5S21,14.672,21,15.5v1.335c-0.337,0.076-0.674,0.148-1.008,0.239l-3.248,0.887 C14.215,18.65,11.604,19,8.982,19H4.976L7.8,14.764z M27,15.5v2c0,0.276-0.224,0.5-0.5,0.5S26,17.776,26,17.5v-2 c0-0.276,0.224-0.5,0.5-0.5S27,15.224,27,15.5z M23,15.5v2c0,0.276-0.224,0.5-0.5,0.5S22,17.776,22,17.5v-2 c0-0.276,0.224-0.5,0.5-0.5S23,15.224,23,15.5z M26.441,23H2.31l0.667-1h23.465V23z M27.364,20.663L27.02,21H3.643l0.667-1h4.673 c2.71,0,5.41-0.361,8.025-1.074l3.248-0.887c0.261-0.071,0.526-0.128,0.79-0.187C21.205,18.51,21.793,19,22.5,19 c0.828,0,1.5-0.672,1.5-1.5v-0.198c0.333-0.046,0.666-0.086,1-0.121V17.5c0,0.828,0.672,1.5,1.5,1.5s1.5-0.672,1.5-1.5 c0,0,0.012-0.5,0.018-0.5h1.554C29.145,18.351,28.413,19.613,27.364,20.663z M14.501,12h10.336c1.365,0,2.329-1.337,1.897-2.632 C26.462,8.551,25.698,8,24.837,8h-0.881c-3.505,0-6.901,1.089-9.746,3.085C13.81,11.365,14.012,12,14.501,12z M23.956,9h0.881 c0.431,0,0.812,0.275,0.949,0.684c0.103,0.309,0.053,0.637-0.137,0.901C25.458,10.849,25.162,11,24.837,11h-8.611 C18.591,9.687,21.232,9,23.956,9z"></path></svg>