<svg xmlns="http://www.w3.org/2000/svg" xmlns:xlink="http://www.w3.org/1999/xlink" fill="#000000" height="800px" width="800px" id="Layer_1" viewBox="0 0 512 512" xml:space="preserve"><g>	<g>		<g>			<path d="M363.789,16.168c10.401,0,18.863,8.463,18.863,18.863c0,4.465,3.618,8.084,8.084,8.084c4.466,0,8.084-3.62,8.084-8.084    c0-10.401,8.463-18.863,18.863-18.863c4.466,0,8.084-3.62,8.084-8.084S422.15,0,417.684,0c-10.823,0-20.517,4.935-26.947,12.671    C384.306,4.935,374.613,0,363.789,0c-4.466,0-8.084,3.62-8.084,8.084S359.324,16.168,363.789,16.168z"></path>			<path d="M29.642,113.179c4.466,0,8.084-3.62,8.084-8.084c0-4.465-3.618-8.084-8.084-8.084c-7.43,0-13.474-6.044-13.474-13.474    s6.044-13.474,13.474-13.474h43.116c4.466,0,8.084-3.62,8.084-8.084c0-4.465-3.618-8.084-8.084-8.084H29.642    C13.298,53.895,0,67.192,0,83.537S13.298,113.179,29.642,113.179z"></path>			<path d="M304.477,301.67c1.146,0.563,2.361,0.83,3.558,0.83c2.987,0,5.857-1.661,7.262-4.522    c8.933-18.185,13.461-37.748,13.461-58.147c0-20.175-4.433-39.545-13.179-57.569c-1.95-4.016-6.786-5.695-10.802-3.745    c-4.017,1.949-5.693,6.784-3.746,10.802c7.67,15.807,11.558,32.802,11.558,50.512c0,17.906-3.972,35.071-11.804,51.018    C298.817,294.857,300.47,299.701,304.477,301.67z"></path>			<path d="M339.537,428.463c0-4.465-3.619-8.084-8.084-8.084H115.874c-4.466,0-8.084,3.62-8.084,8.084    c0,4.465,3.618,8.084,8.084,8.084h215.579C335.918,436.547,339.537,432.928,339.537,428.463z"></path>			<path d="M414.989,137.432c0,4.465,3.619,8.084,8.084,8.084h59.284c7.43,0,13.474,6.044,13.474,13.474    s-6.044,13.474-13.474,13.474H363.789c-7.43,0-13.474-6.044-13.474-13.474c0-4.465-3.618-8.084-8.084-8.084h-43.116    c-7.43,0-13.474-6.044-13.474-13.474s6.044-13.474,13.474-13.474h75.453c7.43,0,13.474,6.044,13.474,13.474    c0,4.465,3.618,8.084,8.084,8.084c4.466,0,8.084-3.62,8.084-8.084c0-16.345-13.298-29.642-29.642-29.642h-75.453    c-16.344,0-29.642,13.297-29.642,29.642s13.298,29.642,29.642,29.642h36.151c3.527,12.428,14.978,21.558,28.522,21.558h118.568    c16.344,0,29.642-13.297,29.642-29.642c0-16.345-13.298-29.642-29.642-29.642h-59.284    C418.608,129.347,414.989,132.967,414.989,137.432z"></path>			<path d="M439.242,247.916h-30.587c-5.342,0-10.544,0.762-15.488,2.198c0.177-3.426,0.265-6.86,0.265-10.282    c0-9.4-0.67-18.851-1.992-28.092c-0.633-4.42-4.738-7.495-9.147-6.858c-4.42,0.632-7.49,4.728-6.859,9.147    c1.214,8.485,1.829,17.166,1.829,25.803c0,6.164-0.314,12.37-0.933,18.478c-9.237,6.638-16.426,16.121-20.209,27.471    c-5.345,16.035-20.292,26.808-37.196,26.808h-71.954c-23.873,0-44.985,15.217-52.534,37.864l-8.936,26.809H79.651    c-40.381-34.417-63.483-84.341-63.483-137.432c0-99.554,80.994-180.547,180.547-180.547c39.429,0,76.885,12.48,108.319,36.089    c3.569,2.68,8.637,1.96,11.319-1.609c2.681-3.57,1.961-8.638-1.609-11.319c-34.255-25.729-75.07-39.329-118.028-39.329    C88.246,43.116,0,131.362,0,239.832c0,51.797,20.179,100.825,55.983,137.432H8.084c-4.466,0-8.084,3.62-8.084,8.084    c0,4.465,3.619,8.084,8.084,8.084h408.522c4.466,0,8.084-3.62,8.084-8.084c0-4.465-3.619-8.084-8.084-8.084H202.542l7.233-21.696    c5.345-16.036,20.292-26.809,37.196-26.809h71.954c8.16,0,15.996-1.777,23.079-5.022c-5.495,9.265-11.846,18.036-18.976,26.166    c-2.944,3.357-2.611,8.465,0.745,11.408c3.357,2.944,8.465,2.61,11.408-0.746c20.269-23.105,34.778-50.979,42.024-80.699    c7.254-9.752,18.805-15.781,31.451-15.781h30.587c31.203,0,56.589,25.385,56.589,56.589v56.589h-49.044    c-4.466,0-8.084,3.62-8.084,8.084c0,4.465,3.619,8.084,8.084,8.084h57.128c4.466,0,8.084-3.62,8.084-8.084v-64.674    C512,280.554,479.361,247.916,439.242,247.916z"></path>			<path d="M185.937,458.105h-21.558c-4.466,0-8.084,3.62-8.084,8.084c0,4.465,3.618,8.084,8.084,8.084h21.558    c4.466,0,8.084-3.62,8.084-8.084C194.021,461.725,190.403,458.105,185.937,458.105z"></path>			<path d="M396.126,420.379h-21.558c-4.466,0-8.084,3.62-8.084,8.084c0,4.465,3.619,8.084,8.084,8.084h21.558    c4.466,0,8.084-3.62,8.084-8.084C404.211,423.999,400.592,420.379,396.126,420.379z"></path>			<path d="M196.716,123.958c17.373,0,34.075,3.748,49.641,11.139c4.029,1.913,8.855,0.199,10.769-3.835    c1.915-4.033,0.199-8.855-3.834-10.77c-17.75-8.428-36.784-12.702-56.576-12.702c-72.809,0-132.042,59.234-132.042,132.042    c0,60.68,41.056,113.351,99.841,128.086c0.66,0.165,1.32,0.245,1.971,0.245c3.62,0,6.915-2.45,7.836-6.12    c1.085-4.331-1.546-8.722-5.877-9.808c-51.579-12.929-87.604-59.151-87.604-112.403    C80.842,175.938,132.824,123.958,196.716,123.958z"></path>			<path d="M288.337,495.832h-64.674c-4.466,0-8.084,3.62-8.084,8.084c0,4.465,3.618,8.084,8.084,8.084h64.674    c4.466,0,8.084-3.62,8.084-8.084C296.421,499.451,292.803,495.832,288.337,495.832z"></path>			<path d="M347.621,458.105H218.274c-4.466,0-8.084,3.62-8.084,8.084c0,4.465,3.619,8.084,8.084,8.084h129.347    c4.466,0,8.084-3.62,8.084-8.084C355.705,461.725,352.087,458.105,347.621,458.105z"></path>		</g>	</g></g></svg>